<svg width="22" height="22" viewBox="0 0 22 22" fill="none" xmlns="http://www.w3.org/2000/svg">
<path fill-rule="evenodd" clip-rule="evenodd" d="M11.9719 14.7217C11.7141 14.9792 11.3646 15.1239 11.0002 15.1239C10.6359 15.1239 10.2864 14.9792 10.0286 14.7217L4.84207 9.53706C4.58425 9.27912 4.43946 8.92932 4.43954 8.56461C4.43963 8.19991 4.58459 7.85018 4.84253 7.59235C5.10048 7.33453 5.45028 7.18973 5.81498 7.18982C6.17969 7.18991 6.52942 7.33487 6.78724 7.59281L11.0002 11.8058L15.2132 7.59281C15.4725 7.34222 15.8197 7.20346 16.1802 7.20642C16.5408 7.20938 16.8857 7.35383 17.1408 7.60865C17.3958 7.86346 17.5406 8.20826 17.5439 8.56878C17.5472 8.9293 17.4088 9.2767 17.1584 9.53614L11.9728 14.7226L11.9719 14.7217Z" fill="#383434"/>
</svg>
