<svg width="8" height="12" viewBox="0 0 8 12" fill="none" xmlns="http://www.w3.org/2000/svg">
<path fill-rule="evenodd" clip-rule="evenodd" d="M7.38334 5.11669C7.61742 5.35107 7.7489 5.66878 7.7489 6.00003C7.7489 6.33128 7.61742 6.64899 7.38334 6.88336L2.67 11.5984C2.43551 11.8327 2.11751 11.9644 1.78596 11.9643C1.45441 11.9642 1.13647 11.8324 0.902088 11.5979C0.667703 11.3634 0.53607 11.0454 0.536148 10.7139C0.536226 10.3824 0.668009 10.0644 0.902504 9.83003L4.7325 6.00003L0.902504 2.17003C0.674693 1.93438 0.548549 1.61869 0.551242 1.29094C0.553934 0.963192 0.685247 0.649612 0.916899 0.417742C1.14855 0.185871 1.46201 0.0542625 1.78975 0.051261C2.1175 0.0482595 2.43331 0.174106 2.66917 0.401695L7.38417 5.11586L7.38334 5.11669Z" fill="#FFB113"/>
</svg>
