<svg width="24" height="24" viewBox="0 0 24 24" fill="none" xmlns="http://www.w3.org/2000/svg">
<path d="M20.25 5.62505H16.8591C16.7601 4.4043 16.2053 3.26553 15.305 2.43522C14.4046 1.60492 13.2247 1.14392 12 1.14392C10.7753 1.14392 9.59538 1.60492 8.69504 2.43522C7.79471 3.26553 7.23989 4.4043 7.14094 5.62505H3.75C3.25272 5.62505 2.77581 5.82259 2.42417 6.17422C2.07254 6.52585 1.875 7.00277 1.875 7.50005V18.75C1.875 19.2473 2.07254 19.7242 2.42417 20.0759C2.77581 20.4275 3.25272 20.625 3.75 20.625H20.25C20.7473 20.625 21.2242 20.4275 21.5758 20.0759C21.9275 19.7242 22.125 19.2473 22.125 18.75V7.50005C22.125 7.00277 21.9275 6.52585 21.5758 6.17422C21.2242 5.82259 20.7473 5.62505 20.25 5.62505ZM12 3.37505C12.6312 3.37511 13.2412 3.60259 13.7183 4.01582C14.1954 4.42905 14.5076 5.00034 14.5978 5.62505H9.40219C9.49236 5.00034 9.80459 4.42905 10.2817 4.01582C10.7588 3.60259 11.3688 3.37511 12 3.37505ZM19.875 18.375H4.125V7.87505H7.125V9.00005C7.125 9.29841 7.24353 9.58456 7.4545 9.79554C7.66548 10.0065 7.95163 10.125 8.25 10.125C8.54837 10.125 8.83452 10.0065 9.0455 9.79554C9.25647 9.58456 9.375 9.29841 9.375 9.00005V7.87505H14.625V9.00005C14.625 9.29841 14.7435 9.58456 14.9545 9.79554C15.1655 10.0065 15.4516 10.125 15.75 10.125C16.0484 10.125 16.3345 10.0065 16.5455 9.79554C16.7565 9.58456 16.875 9.29841 16.875 9.00005V7.87505H19.875V18.375Z" fill="#D8D8D8"/>
</svg>
