<svg width="32" height="32" viewBox="0 0 32 32" fill="none" xmlns="http://www.w3.org/2000/svg">
<path d="M17.3333 19.9047C17.3333 20.7047 16.7467 21.3334 16 21.3334C15.2533 21.3334 14.6667 20.7047 14.6667 19.9047C14.6667 19.1047 16 17.3334 16 17.3334C16 17.3334 17.3333 19.162 17.3333 19.9047Z" fill="#FFB113"/>
<path fill-rule="evenodd" clip-rule="evenodd" d="M7.09934 14.2247C7.03889 14.2207 6.97934 14.2109 6.92067 14.1954C5.676 13.862 5.362 10.996 6.21934 7.79535C7.07667 4.59468 8.78134 2.27068 10.026 2.60402C10.0846 2.61956 10.1415 2.64077 10.196 2.66735C10.2467 2.66913 10.2973 2.67668 10.348 2.69002L11.4847 2.99468L11.512 3.00269C12.4073 3.28469 12.7813 4.14068 12.9807 5.12268C13.1287 5.85402 13.2107 6.81335 13.268 8.01335L14.0493 8.22268C14.1243 7.89295 14.2816 7.58761 14.5067 7.3352C14.7317 7.08278 15.017 6.89154 15.336 6.77935C15.378 4.95602 15.95 3.70802 16.9607 3.07935C17.9933 2.43735 19.2487 2.59269 20.276 3.05935C21.312 3.53069 22.2667 4.37935 22.7807 5.38335C23.3073 6.41202 23.3893 7.66402 22.5207 8.75002C21.934 9.48269 21.7307 10.15 21.734 10.7247C21.7387 11.3047 21.9553 11.8574 22.3247 12.35C23.0887 13.3674 24.3987 14 25.3333 14C25.5101 14 25.6797 14.0703 25.8047 14.1953C25.9298 14.3203 26 14.4899 26 14.6667C26 14.8435 25.9298 15.0131 25.8047 15.1381C25.6797 15.2631 25.5101 15.3334 25.3333 15.3334C23.9347 15.3334 22.2453 14.466 21.258 13.15C20.7527 12.4767 20.4073 11.6534 20.4013 10.734C20.3947 9.80802 20.7327 8.85069 21.4793 7.91669C21.944 7.33602 21.9427 6.67135 21.594 5.99135C21.234 5.28735 20.5207 4.63602 19.724 4.27335C18.9173 3.90668 18.1733 3.89535 17.664 4.21202C17.1947 4.50402 16.7107 5.21202 16.6693 6.78135C17.0587 6.91964 17.3957 7.17515 17.634 7.51275C17.8723 7.85035 18.0001 8.25347 18 8.66669V12C18.8093 12.608 19.3333 13.576 19.3333 14.6667V15.26L20.9013 16.5V21.0834L21.886 25.7087C22.324 27.1374 21.4967 29.3334 19.424 29.3334H12.576C10.5027 29.3334 9.676 27.1374 10.114 25.7087L11.0987 21.0834V16.5L12.6667 15.26V14.6667C12.6662 14.1491 12.7864 13.6386 13.0179 13.1756C13.2493 12.7127 13.5856 12.3101 14 12V11.66L12.3733 11.224C11.7487 12.1907 11.2167 12.9487 10.738 13.4914C10.0747 14.242 9.32267 14.796 8.40667 14.5927L8.37867 14.586L7.24267 14.2814C7.19286 14.2681 7.14476 14.2491 7.09934 14.2247ZM7.894 12.136C8.46267 11.3607 9.042 10.1407 9.43934 8.65802C9.83667 7.17535 9.94467 5.82935 9.83934 4.87335C9.79667 4.47735 9.72134 4.19669 9.648 4.01602C9.49334 4.13602 9.288 4.34135 9.05267 4.66268C8.48467 5.43802 7.90467 6.65869 7.50734 8.14069C7.11067 9.62269 7.00267 10.9694 7.10734 11.9254C7.15067 12.3214 7.22534 12.602 7.29867 12.7827C7.45334 12.6627 7.65867 12.4574 7.894 12.136ZM8.682 13.2867C9.47734 12.3614 10.2393 10.824 10.7273 9.00335C11.2153 7.18269 11.324 5.47069 11.098 4.27135L11.1227 4.27802C11.2627 4.32668 11.4927 4.49602 11.6733 5.38668C11.8467 6.23868 11.9247 7.50802 11.9867 9.34068C11.0167 10.8974 10.3133 11.9574 9.73867 12.6087C9.13667 13.29 8.852 13.322 8.70667 13.2934L8.682 13.2867ZM16 12.6667C15.4696 12.6667 14.9609 12.8774 14.5858 13.2525C14.2107 13.6275 14 14.1363 14 14.6667H18C18 14.1363 17.7893 13.6275 17.4142 13.2525C17.0391 12.8774 16.5304 12.6667 16 12.6667ZM16.6667 11.3334V8.66669C16.6667 8.48987 16.5964 8.32031 16.4714 8.19528C16.3464 8.07026 16.1768 8.00002 16 8.00002C15.8232 8.00002 15.6536 8.07026 15.5286 8.19528C15.4036 8.32031 15.3333 8.48987 15.3333 8.66669V11.3334H16.6667ZM13.88 16L12.432 17.1454V21.224L11.8167 24.1127C12.756 24.4147 14.6987 24.846 16.246 23.906C17.768 22.9814 19.3307 23.3834 20.0927 23.6847L19.568 21.224V17.1454L18.12 16H13.88Z" fill="#FFB113"/>
</svg>
