<svg width="33" height="32" viewBox="0 0 33 32" fill="none" xmlns="http://www.w3.org/2000/svg">
<path d="M24.5 22L28.5 2.66669C28.5 2.66669 21.5 4.00002 21.5 6.66669C21.5 8.33335 24.1667 9.33335 23.1667 10.3334C22.1667 11.3334 18.5 12.3334 18.5 15C18.5 16.6667 19.5933 17.9067 18.5 19C17.5 20 16.5 19.476 14.8333 19C12.9667 18.4667 9.16667 18 7.83334 18.3334C6.50001 18.6667 5.16667 19.3334 5.16667 21.3334C5.16667 22.4334 5.83334 23.6667 7.50001 24C9.16667 24.3334 11.1667 22.6667 13.8333 22.6667C16.5 22.6667 19.8333 24.6667 21.8333 24.6667C23.8333 24.6667 24.5 22 24.5 22Z" fill="#FFB113" stroke="#FFB113" stroke-width="4" stroke-linejoin="round"/>
<path d="M7.83334 24L5.83334 29.3333H27.8333L23.8333 24" stroke="#FFB113" stroke-width="4" stroke-linejoin="round"/>
</svg>
