<svg width="24" height="24" viewBox="0 0 24 24" fill="none" xmlns="http://www.w3.org/2000/svg">
<path d="M8.117 16.538C8.335 16.538 8.51733 16.4643 8.664 16.317C8.81067 16.1697 8.884 15.9863 8.884 15.767C8.884 15.5477 8.81067 15.3653 8.664 15.22C8.51733 15.0747 8.334 15.0013 8.114 15C7.894 14.9987 7.71133 15.0727 7.566 15.222C7.42067 15.3713 7.34733 15.5543 7.346 15.771C7.34467 15.9877 7.41867 16.17 7.568 16.318C7.71533 16.4647 7.89833 16.538 8.117 16.538ZM8.117 12.769C8.335 12.769 8.51733 12.6953 8.664 12.548C8.81067 12.4007 8.884 12.2173 8.884 11.998C8.884 11.7787 8.81067 11.5963 8.664 11.451C8.51733 11.3057 8.334 11.2323 8.114 11.231C7.894 11.2297 7.71133 11.3033 7.566 11.452C7.42067 11.6007 7.34733 11.784 7.346 12.002C7.34467 12.22 7.41867 12.4023 7.568 12.549C7.71533 12.6957 7.89833 12.769 8.117 12.769ZM8.117 9C8.335 9 8.51733 8.926 8.664 8.778C8.81067 8.63 8.884 8.447 8.884 8.229C8.884 8.011 8.81067 7.82867 8.664 7.682C8.51733 7.53533 8.334 7.462 8.114 7.462C7.894 7.462 7.71133 7.53567 7.566 7.683C7.42067 7.83033 7.34733 8.01367 7.346 8.233C7.34467 8.45233 7.41867 8.63467 7.568 8.78C7.71533 8.92667 7.89833 9 8.117 9ZM11.192 16.27H16.577V15.27H11.192V16.27ZM11.192 12.5H16.577V11.5H11.192V12.5ZM11.192 8.73H16.577V7.73H11.192V8.73ZM5.615 20C5.155 20 4.771 19.846 4.463 19.538C4.155 19.23 4.00067 18.8457 4 18.385V5.615C4 5.155 4.15433 4.771 4.463 4.463C4.77167 4.155 5.15567 4.00067 5.615 4H18.385C18.845 4 19.229 4.15433 19.537 4.463C19.845 4.77167 19.9993 5.15567 20 5.615V18.385C20 18.845 19.846 19.229 19.538 19.537C19.23 19.845 18.8457 19.9993 18.385 20H5.615ZM5.615 19H18.385C18.5383 19 18.6793 18.936 18.808 18.808C18.9367 18.68 19.0007 18.539 19 18.385V5.615C19 5.46167 18.936 5.32067 18.808 5.192C18.68 5.06333 18.539 4.99933 18.385 5H5.615C5.46167 5 5.32067 5.064 5.192 5.192C5.06333 5.32 4.99933 5.461 5 5.615V18.385C5 18.5383 5.064 18.6793 5.192 18.808C5.32 18.9367 5.461 19.0007 5.615 19Z" fill="#D8D8D8"/>
</svg>
