<svg width="32" height="32" viewBox="0 0 32 32" fill="none" xmlns="http://www.w3.org/2000/svg">
<path d="M23.4 3H8.60667C7.5021 3 6.60667 3.89543 6.60667 5V25.3867C6.60667 26.4912 7.5021 27.3867 8.60667 27.3867H23.4C24.5046 27.3867 25.4 26.4912 25.4 25.3867V5C25.4 3.89543 24.5046 3 23.4 3Z" stroke="#FFB113" stroke-width="3" stroke-linecap="round" stroke-linejoin="round"/>
<path d="M6.60667 13.1267H25.3933M10.3133 10.5667V6.52667M10.3133 19.44V15.4M8.42667 27.3867V28.0867C8.42666 28.3278 8.52197 28.5591 8.69181 28.7302C8.86166 28.9012 9.09226 28.9982 9.33333 29H10.98C11.2222 29 11.4545 28.9038 11.6258 28.7325C11.7971 28.5612 11.8933 28.3289 11.8933 28.0867V27.3867M20.1 27.3867V28.0867C20.1 28.3289 20.1962 28.5612 20.3675 28.7325C20.5388 28.9038 20.7711 29 21.0133 29H22.6667C22.9089 29 23.1412 28.9038 23.3125 28.7325C23.4838 28.5612 23.58 28.3289 23.58 28.0867V27.3867" stroke="#FFB113" stroke-width="3" stroke-linecap="round" stroke-linejoin="round"/>
</svg>
