<svg width="32" height="32" viewBox="0 0 32 32" fill="none" xmlns="http://www.w3.org/2000/svg">
<path d="M21.3333 32C20.3556 32 19.5188 31.6704 18.8231 31.0113C18.1274 30.3522 17.779 29.559 17.7778 28.6315C17.7766 27.7041 18.125 26.9114 18.8231 26.2534C19.5212 25.5955 20.3579 25.2654 21.3333 25.2631C22.3087 25.2609 23.1461 25.591 23.8453 26.2534C24.5446 26.9159 24.8924 27.7086 24.8889 28.6315C24.8853 29.5545 24.5375 30.3477 23.8453 31.0113C23.1532 31.6749 22.3159 32.0044 21.3333 32ZM3.55556 32C2.57778 32 1.74104 31.6704 1.04534 31.0113C0.349632 30.3522 0.0011882 29.559 3.01319e-06 28.6315C-0.00118217 27.7041 0.347262 26.9114 1.04534 26.2534C1.74341 25.5955 2.58015 25.2654 3.55556 25.2631C4.53097 25.2609 5.3683 25.591 6.06756 26.2534C6.76682 26.9159 7.11467 27.7086 7.11111 28.6315C7.10756 29.5545 6.75971 30.3477 6.06756 31.0113C5.37541 31.6749 4.53808 32.0044 3.55556 32ZM6.08889 23.5789C5.31852 23.5789 4.77748 23.2561 4.46578 22.6105C4.15408 21.9649 4.25067 21.3614 4.75556 20.8L21.6889 1.97894C22.2815 1.33333 22.941 0.842104 23.6676 0.505262C24.3941 0.168421 25.1864 0 26.0444 0C27.7037 0 29.1111 0.547368 30.2667 1.6421C31.4222 2.73684 32 4.07017 32 5.6421V6.73683H28.4444V5.6421C28.4444 4.99648 28.2151 4.45641 27.7564 4.02189C27.2978 3.58736 26.7271 3.36954 26.0444 3.36842C25.7185 3.36842 25.4299 3.42456 25.1787 3.53684C24.9274 3.64912 24.6975 3.81754 24.4889 4.0421L23.1111 5.51578V20.2105C23.1111 21.1368 22.7633 21.9301 22.0676 22.5903C21.3719 23.2505 20.5345 23.58 19.5556 23.5789H6.08889ZM9.95556 11.1158L1.28889 2.90526C2.71111 1.95087 4.20741 1.22835 5.77778 0.737683C7.34815 0.247017 8.97778 0.00112281 10.6667 0C12 0 13.3114 0.154386 14.6009 0.463157C15.8904 0.771929 17.1271 1.23509 18.3111 1.85263L9.95556 11.1158Z" fill="#FFB113"/>
</svg>
